HIERARCHY
ROOT hip
{
  OFFSET 0 0 0
  CHANNELS 6 Xposition Yposition Zposition Zrotation Yrotation Xrotation
  JOINT abdomen
  {
    OFFSET 0 20.6881 -0.73152
    CHANNELS 3 Zrotation Xrotation Yrotation
    JOINT chest
    {
      OFFSET 0 11.7043 -0.48768
      CHANNELS 3 Zrotation Xrotation Yrotation
      JOINT neck
      {
        OFFSET 0 22.1894 -2.19456
        CHANNELS 3 Zrotation Xrotation Yrotation
        JOINT head
        {
          OFFSET -0.24384 7.07133 1.2192
          CHANNELS 3 Zrotation Xrotation Yrotation
          JOINT leftEye
          {
            OFFSET 4.14528 8.04674 8.04672
            CHANNELS 3 Zrotation Xrotation Yrotation
            End Site
            {
              OFFSET 1 0 0
            }
          }
          JOINT rightEye
          {
            OFFSET -3.6576 8.04674 8.04672
            CHANNELS 3 Zrotation Xrotation Yrotation
            End Site
            {
              OFFSET 1 0 0
            }
          }
        }
      }
      JOINT rCollar
      {
        OFFSET -2.68224 19.2634 -4.8768
        CHANNELS 3 Zrotation Xrotation Yrotation
        JOINT rShldr
        {
          OFFSET -8.77824 -1.95073 1.46304
          CHANNELS 3 Zrotation Xrotation Yrotation
          JOINT rForeArm
          {
            OFFSET -28.1742 -1.7115 0.48768
            CHANNELS 3 Zrotation Xrotation Yrotation
            JOINT rHand
            {
              OFFSET -22.5879 0.773209 7.07136
              CHANNELS 3 Zrotation Xrotation Yrotation
              JOINT rThumb1
              {
                OFFSET -1.2192 -0.487915 3.41376
                CHANNELS 3 Zrotation Xrotation Yrotation
                JOINT rThumb2
                {
                  OFFSET -3.37035 -0.52449 3.41376
                  CHANNELS 3 Zrotation Xrotation Yrotation
                  End Site
                  {
                    OFFSET -1.78271 -1.18214 1.43049
                  }
                }
              }
              JOINT rIndex1
              {
                OFFSET -7.75947 0.938293 5.60832
                CHANNELS 3 Zrotation Xrotation Yrotation
                JOINT rIndex2
                {
                  OFFSET -2.54057 -0.884171 1.56538
                  CHANNELS 3 Zrotation Xrotation Yrotation
                  End Site
                  {
                    OFFSET -1.62519 -0.234802 1.16502
                  }
                }
              }
              JOINT rMid1
              {
                OFFSET -8.24714 1.18213 3.41376
                CHANNELS 3 Zrotation Xrotation Yrotation
                JOINT rMid2
                {
                  OFFSET -3.10165 -0.590103 1.0647
                  CHANNELS 3 Zrotation Xrotation Yrotation
                  End Site
                  {
                    OFFSET -2.48547 -0.328903 0.83742
                  }
                }
              }
              JOINT rRing1
              {
                OFFSET -8.82822 0.546677 1.51678
                CHANNELS 3 Zrotation Xrotation Yrotation
                JOINT rRing2
                {
                  OFFSET -2.60934 -0.819778 -0.0198488
                  CHANNELS 3 Zrotation Xrotation Yrotation
                  End Site
                  {
                    OFFSET -2.33842 -0.294052 0.168128
                  }
                }
              }
              JOINT rPinky1
              {
                OFFSET -8.27202 -0.0477905 -0.4584
                CHANNELS 3 Zrotation Xrotation Yrotation
                JOINT rPinky2
                {
                  OFFSET -1.82734 -0.647385 -0.700984
                  CHANNELS 3 Zrotation Xrotation Yrotation
                  End Site
                  {
                    OFFSET -1.69225 -0.51767 -0.607171
                  }
                }
              }
            }
          }
        }
      }
      JOINT lCollar
      {
        OFFSET 2.68224 19.2634 -4.8768
        CHANNELS 3 Zrotation Xrotation Yrotation
        JOINT lShldr
        {
          OFFSET 8.77824 -1.95073 1.46304
          CHANNELS 3 Zrotation Xrotation Yrotation
          JOINT lForeArm
          {
            OFFSET 28.1742 -1.7115 0.48768
            CHANNELS 3 Zrotation Xrotation Yrotation
            JOINT lHand
            {
              OFFSET 22.5879 0.773209 7.07136
              CHANNELS 3 Zrotation Xrotation Yrotation
              JOINT lThumb1
              {
                OFFSET 1.2192 -0.487915 3.41376
                CHANNELS 3 Zrotation Xrotation Yrotation
                JOINT lThumb2
                {
                  OFFSET 3.37035 -0.52449 3.41376
                  CHANNELS 3 Zrotation Xrotation Yrotation
                  End Site
                  {
                    OFFSET 1.78271 -1.18214 1.43049
                  }
                }
              }
              JOINT lIndex1
              {
                OFFSET 7.75947 0.938293 5.60832
                CHANNELS 3 Zrotation Xrotation Yrotation
                JOINT lIndex2
                {
                  OFFSET 2.54057 -0.884171 1.56538
                  CHANNELS 3 Zrotation Xrotation Yrotation
                  End Site
                  {
                    OFFSET 1.62519 -0.234802 1.16502
                  }
                }
              }
              JOINT lMid1
              {
                OFFSET 8.24714 1.18213 3.41376
                CHANNELS 3 Zrotation Xrotation Yrotation
                JOINT lMid2
                {
                  OFFSET 3.10165 -0.590103 1.0647
                  CHANNELS 3 Zrotation Xrotation Yrotation
                  End Site
                  {
                    OFFSET 2.48547 -0.328903 0.83742
                  }
                }
              }
              JOINT lRing1
              {
                OFFSET 8.82822 0.546677 1.51678
                CHANNELS 3 Zrotation Xrotation Yrotation
                JOINT lRing2
                {
                  OFFSET 2.60934 -0.819778 -0.0198488
                  CHANNELS 3 Zrotation Xrotation Yrotation
                  End Site
                  {
                    OFFSET 2.33842 -0.294052 0.168128
                  }
                }
              }
              JOINT lPinky1
              {
                OFFSET 8.27202 -0.0477905 -0.4584
                CHANNELS 3 Zrotation Xrotation Yrotation
                JOINT lPinky2
                {
                  OFFSET 1.82734 -0.647385 -0.700984
                  CHANNELS 3 Zrotation Xrotation Yrotation
                  End Site
                  {
                    OFFSET 1.69225 -0.51767 -0.607171
                  }
                }
              }
            }
          }
        }
      }
    }
  }
  JOINT rButtock
  {
    OFFSET -8.77824 4.35084 1.2192
    CHANNELS 3 Zrotation Xrotation Yrotation
    JOINT rThigh
    {
      OFFSET 0 -1.70687 -2.19456
      CHANNELS 3 Zrotation Xrotation Yrotation
      JOINT rShin
      {
        OFFSET 0 -36.8199 0.73152
        CHANNELS 3 Zrotation Xrotation Yrotation
        JOINT rFoot
        {
          OFFSET 0.73152 -45.1104 -5.12064
          CHANNELS 3 Zrotation Xrotation Yrotation
          End Site
          {
            OFFSET -1.1221 -3.69964 12.103
          }
        }
      }
    }
  }
  JOINT lButtock
  {
    OFFSET 8.77824 4.35084 1.2192
    CHANNELS 3 Zrotation Xrotation Yrotation
    JOINT lThigh
    {
      OFFSET 0 -1.70687 -2.19456
      CHANNELS 3 Zrotation Xrotation Yrotation
      JOINT lShin
      {
        OFFSET 0 -36.8199 0.73152
        CHANNELS 3 Zrotation Xrotation Yrotation
        JOINT lFoot
        {
          OFFSET -0.73152 -45.1104 -5.12064
          CHANNELS 3 Zrotation Xrotation Yrotation
          End Site
          {
            OFFSET 1.1221 -3.69964 12.103
          }
        }
      }
    }
  }
}
MOTION
Frames:	9
Frame Time:	0.00833333
145.933 85.3326 9.00968 0.0 0.0 0.0 1.16875 -0.00493881 0.0322836 0.322753 -0.00472403 0.055915 -3.94905e-14 -1.59028e-15 -3.10601e-16 -1.18115e-13 -6.36111e-15 -9.44227e-16 -0.0 0.0 0.0 -0.0 0.0 0.0 -1.96816e-14 7.76503e-18 9.93923e-17 -4.11635e-13 -4.96962e-17 -3.97569e-15 -7.12176e-12 2.13137e-12 -2.8625e-14 -8.14431e-11 -2.11549e-12 -7.79236e-13 -1.92126e-10 3.31319e-14 -1.71114e-12 -3.31805e-10 6.04305e-14 -2.95712e-12 -1.92121e-10 3.49861e-14 -1.72386e-12 7.73091 5.47488 0.417314 -1.92127e-10 3.33958e-14 -1.71432e-12 2.90554 0.965183 0.102902 -1.92126e-10 3.30976e-14 -1.70955e-12 10.2786 0.731801 0.0259123 -1.92126e-10 3.29983e-14 -1.69524e-12 2.22167 -0.733487 -0.20892 -1.97784e-14 8.54153e-18 -3.97569e-16 -4.15552e-13 1.73937e-16 -5.36719e-15 -7.10958e-12 -2.13057e-12 1.59028e-14 -8.14591e-11 2.15512e-12 -8.0468e-13 -1.92129e-10 5.09147e-14 -1.70796e-12 -3.31792e-10 8.90555e-14 -2.94042e-12 -1.92134e-10 5.32743e-14 -1.70478e-12 -7.73091 5.47488 -0.417314 -1.92128e-10 5.04913e-14 -1.71114e-12 -2.90554 0.965183 -0.102902 -1.92138e-10 5.14852e-14 -1.70796e-12 -10.2786 0.731801 -0.0259123 -1.92123e-10 5.1684e-14 -1.72386e-12 -2.22167 -0.733487 0.20892 -2.03217e-16 0.0 -3.88251e-19 1.35585 -5.84651 -0.122718 0.00113186 5.034 0.0414029 -0.480861 0.811091 0.071089 2.03217e-16 0.0 3.88251e-19 0.426424 -1.91991 0.00997221 0.00898956 -2.0786 0.074084 0.459284 3.99698 -0.132488
141.103 83.6673 3.60995 123.534 -87.9795 -119.234 -0.266943 -2.00934 1.10426 0.492297 -1.71695 0.379471 -2.07403 3.44076 -1.03585 4.47559 -4.33849 -1.4428 -0.0 0.0 0.0 -0.0 0.0 0.0 -4.48794e-15 1.72862e-13 2.91227e-15 25.3736 -3.74703 -2.10733 -4.42285 -2.05161 6.86199 0.00239226 1.0945 0.153724 -7.16025e-11 -1.09014e-10 4.48708e-10 -1.21738e-10 -1.88971e-10 7.7596e-10 -7.15961e-11 -1.09013e-10 4.487e-10 7.73091 5.47488 0.417314 -7.16035e-11 -1.09013e-10 4.48706e-10 2.90554 0.965183 0.102902 -7.15996e-11 -1.09013e-10 4.48709e-10 10.2786 0.731801 0.0259123 -7.16019e-11 -1.09013e-10 4.48719e-10 2.22167 -0.733487 -0.20892 -4.57648e-15 1.72864e-13 2.49917e-15 -24.5795 -1.57064 3.72438 5.75683 -3.01769 -8.51226 -0.116114 7.69403 -1.04808 -1.20163e-10 -3.24845e-10 -4.5439e-10 -2.17257e-10 -5.58811e-10 -7.85534e-10 -1.20167e-10 -3.24843e-10 -4.54385e-10 -7.73091 5.47488 -0.417314 -1.20162e-10 -3.24845e-10 -4.54392e-10 -2.90554 0.965183 -0.102902 -1.20172e-10 -3.24844e-10 -4.5439e-10 -10.2786 0.731801 -0.0259123 -1.20158e-10 -3.24843e-10 -4.54403e-10 -2.22167 -0.733487 0.20892 -2.03217e-16 0.0 -3.88251e-19 0.817811 -9.59435 -0.33259 0.0110517 11.8254 0.155384 -0.848879 -4.93784 -2.67772 2.03217e-16 0.0 3.88251e-19 0.0956853 -5.89413 -0.0266164 -0.0167709 6.89477 -0.0883382 0.618361 -2.78956 1.31544
140.985 83.8287 3.63166 114.332 -88.1358 -110.24 -1.70951 -4.13527 2.23287 0.697814 -3.52814 0.720194 -4.11672 7.07752 -2.14306 8.94461 -8.92762 -2.99697 -0.0 0.0 0.0 -0.0 0.0 0.0 1.19836e-14 3.6476e-13 6.01013e-15 51.8997 -7.67552 -4.352 -8.57441 -4.12688 14.1538 -0.00147743 2.23488 0.314084 4.7933e-11 -2.17477e-10 9.10546e-10 8.66219e-11 -3.77044e-10 1.57467e-09 4.7941e-11 -2.17476e-10 9.10542e-10 7.73091 5.47488 0.417314 4.79318e-11 -2.17475e-10 9.10545e-10 2.90554 0.965183 0.102902 4.79386e-11 -2.17475e-10 9.10545e-10 10.2786 0.731801 0.0259123 4.79341e-11 -2.17476e-10 9.1055e-10 2.22167 -0.733487 -0.20892 1.19024e-14 3.64762e-13 5.68711e-15 -50.3364 -3.25971 7.68199 10.8824 -5.9892 -17.5913 0.0822883 15.9789 -2.24425 -3.73421e-11 -6.66893e-10 -9.24802e-10 -8.46249e-11 -1.14711e-09 -1.59881e-09 -3.7346e-11 -6.66892e-10 -9.24795e-10 -7.73091 5.47488 -0.417314 -3.73407e-11 -6.66893e-10 -9.24803e-10 -2.90554 0.965183 -0.102902 -3.73503e-11 -6.66891e-10 -9.24801e-10 -10.2786 0.731801 -0.0259123 -3.73379e-11 -6.66889e-10 -9.24812e-10 -2.22167 -0.733487 0.20892 -2.03217e-16 0.0 -3.88251e-19 0.215951 -13.5763 -0.567037 -0.00959304 19.0134 0.285015 -1.84756 -10.9754 -5.6694 2.03217e-16 0.0 3.88251e-19 -0.258196 -10.1126 -0.0669468 0.0131619 16.3815 -0.269384 1.15903 -9.95123 2.86815
140.864 84.0712 3.63314 109.088 -88.2445 -105.192 -2.91238 -6.00956 3.26415 0.889602 -5.1407 1.03021 -5.84386 10.3087 -3.15289 12.7573 -12.982 -4.42942 -0.0 0.0 0.0 -0.0 0.0 0.0 2.58994e-14 5.18572e-13 8.53803e-15 75.2823 -11.1797 -6.431 -11.8232 -5.80245 20.6835 -0.010467 3.28342 0.461848 1.69445e-10 -3.27108e-10 1.34955e-09 2.98396e-10 -5.67033e-10 2.33379e-09 1.69455e-10 -3.27108e-10 1.34955e-09 7.73091 5.47488 0.417314 1.69444e-10 -3.27106e-10 1.34955e-09 2.90554 0.965183 0.102902 1.69453e-10 -3.27105e-10 1.34955e-09 10.2786 0.731801 0.0259123 1.69447e-10 -3.27106e-10 1.34955e-09 2.22167 -0.733487 -0.20892 2.58275e-14 5.18574e-13 8.29266e-15 -73.1285 -4.63226 11.206 14.6564 -8.25536 -25.7876 0.557915 23.0498 -3.38659 2.37691e-11 -9.74638e-10 -1.35975e-09 1.18121e-11 -1.67661e-09 -2.35072e-09 2.3766e-11 -9.74637e-10 -1.35975e-09 -7.73091 5.47488 -0.417314 2.37709e-11 -9.74637e-10 -1.35975e-09 -2.90554 0.965183 -0.102902 2.37616e-11 -9.74635e-10 -1.35975e-09 -10.2786 0.731801 -0.0259123 2.37726e-11 -9.74632e-10 -1.35976e-09 -2.22167 -0.733487 0.20892 -2.03217e-16 0.0 -3.88251e-19 -0.344375 -17.089 -0.773821 -0.0583911 25.4078 0.413798 -3.29084 -16.2812 -8.48825 2.03217e-16 0.0 3.88251e-19 -0.581408 -13.8425 -0.102332 0.0956143 24.8409 -0.45309 1.99668 -16.3196 4.38288
140.761 84.0421 3.63102 110.039 -88.2769 -106.375 -3.67454 -7.26263 4.0369 1.00651 -6.25734 1.26011 -7.0513 12.5388 -3.87598 15.4109 -15.7318 -5.45994 -0.0 0.0 0.0 -0.0 0.0 0.0 3.34257e-14 5.7717e-13 9.64106e-15 91.3879 -13.6792 -7.99572 -13.8306 -6.81852 25.2138 -0.0206856 4.10241 0.577554 2.959e-10 -4.39659e-10 1.73146e-09 5.18704e-10 -7.6181e-10 2.99393e-09 2.9591e-10 -4.39659e-10 1.73146e-09 7.73091 5.47488 0.417314 2.95898e-10 -4.39657e-10 1.73146e-09 2.90554 0.965183 0.102902 2.95909e-10 -4.39656e-10 1.73146e-09 10.2786 0.731801 0.0259123 2.95901e-10 -4.39657e-10 1.73146e-09 2.22167 -0.733487 -0.20892 3.33681e-14 5.77172e-13 9.44227e-15 -88.9719 -5.29631 13.6099 16.8722 -9.52349 -31.5364 0.996052 27.1211 -4.12794 3.06065e-11 -1.19662e-09 -1.70606e-09 1.77606e-11 -2.05908e-09 -2.9492e-09 3.06041e-11 -1.19662e-09 -1.70605e-09 -7.73091 5.47488 -0.417314 3.06087e-11 -1.19662e-09 -1.70606e-09 -2.90554 0.965183 -0.102902 3.06e-11 -1.19662e-09 -1.70606e-09 -10.2786 0.731801 -0.0259123 3.06101e-11 -1.19662e-09 -1.70606e-09 -2.22167 -0.733487 0.20892 -2.03217e-16 0.0 -3.88251e-19 -0.734341 -19.4296 -0.891932 -0.111426 29.8185 0.513373 -4.61991 -19.9069 -10.5702 2.03217e-16 0.0 3.88251e-19 -0.816051 -16.351 -0.122838 0.190608 30.7325 -0.603587 2.83997 -20.745 5.62773
140.597 84.0526 3.6136 117.418 -88.2011 -114.076 -3.88405 -7.6306 4.44751 0.992952 -6.67749 1.37822 -7.65972 13.3801 -4.16811 16.6805 -16.6745 -5.85947 -0.0 0.0 0.0 -0.0 0.0 0.0 3.19479e-14 5.05997e-13 8.6945e-15 97.5799 -14.7947 -8.76372 -14.5206 -7.14359 26.8924 -0.0275472 4.59791 0.647678 4.11187e-10 -5.24687e-10 2.00375e-09 7.19513e-10 -9.08697e-10 3.46435e-09 4.11196e-10 -5.24687e-10 2.00375e-09 7.73091 5.47488 0.417314 4.11186e-10 -5.24685e-10 2.00375e-09 2.90554 0.965183 0.102902 4.11197e-10 -5.24685e-10 2.00375e-09 10.2786 0.731801 0.0259123 4.11187e-10 -5.24685e-10 2.00375e-09 2.22167 -0.733487 -0.20892 3.19177e-14 5.05999e-13 8.49649e-15 -95.2936 -4.97106 14.4173 17.6241 -9.90679 -33.7165 1.00678 26.7977 -4.07961 -5.41356e-11 -1.30044e-09 -1.92066e-09 -1.29584e-10 -2.23899e-09 -3.31961e-09 -5.41371e-11 -1.30044e-09 -1.92065e-09 -7.73091 5.47488 -0.417314 -5.4133e-11 -1.30044e-09 -1.92066e-09 -2.90554 0.965183 -0.102902 -5.41405e-11 -1.30044e-09 -1.92066e-09 -10.2786 0.731801 -0.0259123 -5.41308e-11 -1.30044e-09 -1.92067e-09 -2.22167 -0.733487 0.20892 -2.03217e-16 0.0 -3.88251e-19 -0.850058 -20.0943 -0.864523 -0.13509 31.4372 0.551864 -5.19695 -21.285 -11.3862 2.03217e-16 0.0 3.88251e-19 -0.925549 -17.1206 -0.126619 0.237626 33.0319 -0.672607 3.34339 -22.4855 6.38746
140.362 84.1019 3.59634 122.403 -88.1646 -119.696 -3.71754 -7.36918 4.59583 0.881918 -6.60041 1.41563 -7.86931 13.232 -4.14338 17.0127 -16.3332 -5.78872 -0.0 0.0 0.0 -0.0 0.0 0.0 2.40413e-14 3.41964e-13 6.28657e-15 96.7617 -14.9361 -8.9394 -14.3566 -7.03805 26.5214 -0.0306034 4.86246 0.685119 5.1936e-10 -5.91562e-10 2.19915e-09 9.0789e-10 -1.02398e-09 3.80169e-09 5.19367e-10 -5.91561e-10 2.19915e-09 7.73091 5.47488 0.417314 5.19358e-10 -5.91561e-10 2.19915e-09 2.90554 0.965183 0.102902 5.19368e-10 -5.91561e-10 2.19915e-09 10.2786 0.731801 0.0259123 5.19358e-10 -5.91561e-10 2.19915e-09 2.22167 -0.733487 -0.20892 2.40476e-14 3.41963e-13 6.05672e-15 -94.8329 -3.95073 14.0859 17.4771 -9.80181 -33.3235 0.718621 23.3454 -3.47288 -2.03549e-10 -1.31977e-09 -2.04156e-09 -3.85155e-10 -2.27405e-09 -3.52775e-09 -2.03549e-10 -1.31976e-09 -2.04155e-09 -7.73091 5.47488 -0.417314 -2.03546e-10 -1.31976e-09 -2.04156e-09 -2.90554 0.965183 -0.102902 -2.03552e-10 -1.31976e-09 -2.04156e-09 -10.2786 0.731801 -0.0259123 -2.03542e-10 -1.31976e-09 -2.04157e-09 -2.22167 -0.733487 0.20892 -2.03217e-16 0.0 -3.88251e-19 -0.767 -19.5636 -0.731968 -0.128744 31.0622 0.540908 -5.09321 -21.091 -11.2311 2.03217e-16 0.0 3.88251e-19 -0.944621 -16.6494 -0.117843 0.231504 32.7656 -0.670998 3.49522 -22.32 6.74578
140.278 84.098 3.58606 126.987 -88.0923 -124.248 -3.41384 -6.88982 4.62261 0.743219 -6.32871 1.41631 -7.91063 12.6825 -3.98999 16.9431 -15.4838 -5.52874 -0.0 0.0 0.0 -0.0 0.0 0.0 1.36575e-14 1.35139e-13 3.38167e-15 93.1373 -14.7177 -8.88417 -13.8441 -6.75556 25.3287 -0.0318563 5.03815 0.709953 6.53623e-10 -7.01753e-10 2.41132e-09 1.14161e-09 -1.21396e-09 4.16763e-09 6.53629e-10 -7.0175e-10 2.41131e-09 7.73091 5.47488 0.417314 6.53622e-10 -7.01752e-10 2.41131e-09 2.90554 0.965183 0.102902 6.53631e-10 -7.01752e-10 2.41131e-09 10.2786 0.731801 0.0259123 6.5362e-10 -7.01751e-10 2.41131e-09 2.22167 -0.733487 -0.20892 1.36942e-14 1.35138e-13 3.11067e-15 -91.6098 -2.72857 13.3174 16.9771 -9.50836 -31.9311 0.446521 18.9858 -2.76383 -3.53877e-10 -1.30226e-09 -2.13711e-09 -6.41444e-10 -2.24594e-09 -3.69219e-09 -3.53877e-10 -1.30226e-09 -2.13711e-09 -7.73091 5.47488 -0.417314 -3.53873e-10 -1.30225e-09 -2.13712e-09 -2.90554 0.965183 -0.102902 -3.53878e-10 -1.30225e-09 -2.13712e-09 -10.2786 0.731801 -0.0259123 -3.53868e-10 -1.30225e-09 -2.13713e-09 -2.22167 -0.733487 0.20892 -2.03217e-16 0.0 -3.88251e-19 -0.618323 -18.6113 -0.574714 -0.111407 29.9145 0.511478 -4.72831 -20.2779 -10.7022 2.03217e-16 0.0 3.88251e-19 -0.921376 -15.7283 -0.0949764 0.203854 31.4697 -0.639993 3.45785 -21.3907 6.87156
140.219 84.095 3.59991 127.766 -88.0207 -124.948 -3.20805 -6.6034 4.66867 0.647758 -6.16494 1.42435 -8.01324 12.3195 -3.89636 17.0106 -14.9023 -5.35887 -0.0 0.0 0.0 -0.0 0.0 0.0 4.74817e-15 -6.44047e-14 9.44227e-16 90.8918 -14.7497 -8.96584 -13.4937 -6.55318 24.5411 -0.0341461 5.26709 0.742354 8.47185e-10 -9.16727e-10 2.73388e-09 1.47845e-09 -1.58497e-09 4.72385e-09 8.4719e-10 -9.16724e-10 2.73388e-09 7.73091 5.47488 0.417314 8.47183e-10 -9.16726e-10 2.73388e-09 2.90554 0.965183 0.102902 8.47191e-10 -9.16727e-10 2.73388e-09 10.2786 0.731801 0.0259123 8.4718e-10 -9.16726e-10 2.73388e-09 2.22167 -0.733487 -0.20892 4.79382e-15 -6.44072e-14 6.4605e-16 -89.6966 -1.81143 12.8016 16.6754 -9.33023 -31.112 0.322734 15.9546 -2.3027 -4.41362e-10 -1.29558e-09 -2.27568e-09 -7.9094e-10 -2.23636e-09 -3.9315e-09 -4.41362e-10 -1.29558e-09 -2.27568e-09 -7.73091 5.47488 -0.417314 -4.41359e-10 -1.29558e-09 -2.27569e-09 -2.90554 0.965183 -0.102902 -4.41363e-10 -1.29558e-09 -2.27569e-09 -10.2786 0.731801 -0.0259123 -4.41352e-10 -1.29558e-09 -2.2757e-09 -2.22167 -0.733487 0.20892 -2.03217e-16 0.0 -3.88251e-19 -0.528006 -18.0115 -0.469845 -0.101473 29.2149 0.494143 -4.52217 -19.799 -10.3969 2.03217e-16 0.0 3.88251e-19 -0.903739 -15.1482 -0.0563866 0.187898 30.6806 -0.621803 3.43457 -20.834 6.94986
